<?xml version="1.0" standalone="no"?>
<!DOCTYPE svg PUBLIC "-//W3C//DTD SVG 20010904//EN"
 "http://www.w3.org/TR/2001/REC-SVG-20010904/DTD/svg10.dtd">
<svg version="1.0" xmlns="http://www.w3.org/2000/svg"
 width="700.000000pt" height="700.000000pt" viewBox="0 0 700.000000 700.000000"
 preserveAspectRatio="xMidYMid meet">
<metadata>
Created by potrace 1.11, written by Peter Selinger 2001-2013
</metadata>
<g transform="translate(0.000000,700.000000) scale(0.100000,-0.100000)"
fill="#000000" stroke="none">
<path d="M1296 6278 c-9 -12 -16 -38 -16 -58 0 -20 7 -46 16 -58 15 -21 21
-22 191 -22 l175 0 81 -42 c193 -101 349 -263 416 -436 12 -29 21 -55 21 -57
0 -3 -241 -5 -535 -5 -334 0 -552 -4 -583 -10 -102 -22 -148 -98 -280 -460
-202 -554 -298 -893 -351 -1246 -22 -149 -44 -786 -45 -1344 -1 -296 1 -343
17 -400 67 -238 254 -495 422 -580 l69 -35 2844 -3 2843 -2 30 29 29 29 0 496
c0 462 -1 495 -17 500 -10 3 -61 15 -113 26 -493 112 -963 307 -1363 567 -685
445 -1166 1056 -1517 1928 -40 99 -85 198 -100 220 -59 85 -153 156 -317 239
l-93 46 -340 0 c-187 0 -340 3 -340 8 0 4 22 53 50 108 79 162 227 303 417
398 50 25 59 26 221 26 151 0 171 2 185 18 21 24 22 90 1 120 l-15 22 -994 0
-994 0 -15 -22z m1223 -236 c-105 -109 -151 -185 -169 -279 -12 -58 -15 -63
-39 -63 -24 0 -27 5 -38 61 -19 100 -56 162 -166 275 l-100 104 303 0 302 0
-93 -98z m580 -819 c47 -57 94 -180 192 -501 69 -229 89 -307 89 -353 0 -68
-19 -122 -48 -138 -15 -8 -401 -11 -1294 -11 -1415 0 -1307 -5 -1328 68 -16
59 -11 122 14 192 197 539 259 686 310 748 l28 32 1003 0 1004 0 30 -37z m858
-1305 c77 -90 172 -193 212 -230 l71 -68 0 -470 0 -471 -192 100 -193 100 -7
68 c-20 192 -49 1133 -36 1133 3 0 68 -73 145 -162z m736 -705 l137 -106 0
-359 c0 -197 -3 -358 -7 -358 -5 1 -87 38 -183 83 l-175 83 -3 423 -2 423 47
-41 c27 -23 110 -90 186 -148z m-3585 -120 c47 -27 96 -94 112 -153 45 -161
-73 -330 -232 -330 -47 0 -131 44 -163 85 -88 116 -74 281 32 375 73 64 165
73 251 23z m1917 3 c49 -26 101 -93 116 -149 15 -57 6 -154 -19 -202 -74 -144
-239 -178 -351 -72 -96 92 -109 253 -28 359 72 94 181 119 282 64z m2253 -233
l102 -46 0 -299 0 -298 -42 6 c-73 10 -186 43 -253 73 l-65 30 0 325 0 325 78
-35 c42 -19 123 -56 180 -81z m407 -171 l130 -38 3 -272 2 -272 -42 5 c-114
16 -173 27 -209 42 l-39 15 0 279 c0 217 3 279 13 279 6 0 71 -17 142 -38z
m503 -142 c9 0 12 -56 12 -246 l0 -247 -82 6 c-46 3 -98 11 -115 17 l-33 12 0
252 0 253 103 -23 c56 -13 108 -23 115 -24z m266 -50 c33 -5 61 -10 63 -10 2
0 3 -108 3 -240 0 -273 10 -248 -96 -229 -32 5 -67 12 -76 15 -17 5 -18 25
-18 245 l0 240 33 -5 c17 -3 59 -10 91 -16z"/>
<path d="M870 1255 l0 -135 -242 -2 -243 -3 -3 -187 -2 -188 1704 0 1704 0 80
34 c431 185 1115 277 2417 326 160 6 305 13 323 16 l32 5 0 134 0 135 -1987
-2 -1988 -3 -3 -132 -3 -133 -529 0 -529 0 -3 133 -3 132 -362 3 -363 2 0
-135z"/>
</g>
</svg>
